<svg xmlns="http://www.w3.org/2000/svg" viewBox="0 0 403.08 198.39"><defs><style>.cls-1{fill:#ee3026;}.cls-2{fill:#fff;}.cls-3{fill:#ee3025;}</style></defs><g id="Layer_2" data-name="Layer 2"><g id="Layer_1-2" data-name="Layer 1"><rect class="cls-1" x="99.08" y="82.61" width="16.07" height="14.79"/><path class="cls-1" d="M388.29,76.5l-193.5-.64-3.86-1.93L117,0,70.08,44.36l-.65-10.29-28.93.64V76.5L0,115.71v.65H41.79L117,41.14,192.86,117h82.93l4.5-9.64,10.93.64,5.14,8.36,15.43.64,3.21-9.64h14.15l2.57,9h15.43l3.85-9,12.86.64,3.22,7.71,23.14.65,12.86-19.93Zm-3.21,10H205.72v-2H385.08Z"/><rect class="cls-1" x="118.93" y="101.93" width="16.07" height="14.79"/><rect class="cls-1" x="99.04" y="102.21" width="16.07" height="14.79"/><rect class="cls-1" x="119.01" y="82.53" width="16.07" height="14.79"/><path class="cls-2" d="M27.23,132.7H15.51v29.41h5v-8.87h6.76c7.39,0,11.64-3.86,11.64-10.5C38.87,136.35,34.62,132.7,27.23,132.7ZM27,148.79H20.47V137.15H27c4.54,0,7.1,1.85,7.1,5.72S31.56,148.79,27,148.79Z"/><path class="cls-2" d="M61.46,152.28c3.91-1.52,6.09-4.83,6.09-9.54,0-6.39-4.32-10-11.84-10H43.78v29.41h4.95v-8.87h7c.46,0,.92,0,1.34,0l5.38,8.91h5.63Zm-5.75-3.49h-7V137.15h7c4.53,0,7.14,1.85,7.14,5.72S60.24,148.79,55.71,148.79Z"/><path class="cls-2" d="M91.49,132.57c-8.78,0-15.58,6.39-15.58,14.83s6.8,14.92,15.58,14.92,15.59-6.52,15.59-14.92S100.27,132.57,91.49,132.57Zm0,25.29a10.42,10.42,0,1,1,0-20.83,10.42,10.42,0,1,1,0,20.83Z"/><path class="cls-2" d="M119.08,132.7v29.41h5V132.7Z"/><path class="cls-2" d="M152.39,132.7v21.13L136.64,132.7h-4.87v29.41h4.95V141l15.67,21.09h4.87V132.7Z"/><path class="cls-2" d="M187.38,132.7l-9.16,23.9-9.07-23.9h-5.34l11.72,29.41h5.13l11.88-29.41Z"/><path class="cls-2" d="M205.69,157.65v-8.1h14.36v-4.41H205.69v-8h16V132.7h-21v29.41h21.51v-4.46Z"/><path class="cls-2" d="M232.78,140.22c0-2,1.89-3.07,4.78-3.07a17.64,17.64,0,0,1,8.62,2.73l2-4.37a19.2,19.2,0,0,0-10.29-3c-6.38,0-10.71,3.15-10.71,8.19,0,10.46,15.88,6.81,15.88,13.36,0,2.27-2.06,3.57-5.5,3.57a15.51,15.51,0,0,1-10-4.28l-2.14,4.28a18.08,18.08,0,0,0,12,4.66c6.47,0,11.09-3.23,11.09-8.48C248.65,143.2,232.78,146.65,232.78,140.22Z"/><path class="cls-2" d="M250.92,132.7v4.45h9.28v25h5v-25h9.32V132.7Z"/><path class="cls-2" d="M306.49,132.7l-9.66,19.53-9.71-19.53h-5.88v29.41h4.66v-22l9.29,18.9h3.23l9.29-18.9,0,22h4.58V132.7Z"/><path class="cls-2" d="M325.05,157.65v-8.1h14.37v-4.41H325.05v-8h16V132.7h-21v29.41H341.6v-4.46Z"/><path class="cls-2" d="M368.27,132.7v21.13L352.52,132.7h-4.88v29.41h5V141l15.67,21.09h4.87V132.7Z"/><path class="cls-2" d="M377.42,132.7v4.45h9.28v25h5v-25H401V132.7Z"/><path class="cls-3" d="M18.7,193.37a4.7,4.7,0,0,0,3.05-4.76c0-3.2-2.16-5-5.92-5h-6v14.69h2.48v-4.43h3.49c.23,0,.46,0,.67,0l2.69,4.45H22Zm-2.87-1.74H12.34v-5.82h3.49c2.27,0,3.57.93,3.57,2.86S18.1,191.63,15.83,191.63Z"/><path class="cls-3" d="M30.89,196.06V192h7.18V189.8H30.89v-4h8v-2.22H28.41v14.69H39.16v-2.22Z"/><path class="cls-3" d="M56.44,183.59H53.9l-6.49,14.69H50L51.4,195h7.41l1.41,3.31h2.65Zm-4.11,9.17,2.77-6.53,2.77,6.53Z"/><path class="cls-3" d="M79.06,196V183.59H76.58v14.69h8.84V196Z"/><path class="cls-3" d="M120.51,196.06V192h7.18V189.8h-7.18v-4h8v-2.22H118v14.69h10.75v-2.22Z"/><path class="cls-3" d="M137.42,187.35c0-1,.94-1.54,2.39-1.54a8.73,8.73,0,0,1,4.3,1.37l1-2.19a9.57,9.57,0,0,0-5.14-1.51c-3.19,0-5.36,1.58-5.36,4.1,0,5.22,7.94,3.4,7.94,6.67,0,1.14-1,1.79-2.75,1.79a7.81,7.81,0,0,1-5-2.14L133.78,196a9.1,9.1,0,0,0,6,2.33c3.23,0,5.54-1.62,5.54-4.24C145.35,188.84,137.42,190.56,137.42,187.35Z"/><path class="cls-3" d="M157.83,183.59v2.22h4.64v12.47H165V185.81h4.66v-2.22Z"/><path class="cls-3" d="M189.16,183.59h-2.54l-6.49,14.69h2.58l1.41-3.31h7.41l1.41,3.31h2.64ZM185,192.76l2.78-6.53,2.77,6.53Z"/><path class="cls-3" d="M203.17,183.59v2.22h4.64v12.47h2.48V185.81H215v-2.22Z"/><path class="cls-3" d="M231.31,196.06V192h7.18V189.8h-7.18v-4h8v-2.22h-10.5v14.69h10.75v-2.22Z"/><path class="cls-3" d="M273.24,183.59H270.7l-6.49,14.69h2.59l1.4-3.31h7.41l1.41,3.31h2.65Zm-4.11,9.17,2.77-6.53,2.77,6.53Z"/><path class="cls-3" d="M299.28,195.16a6.84,6.84,0,0,1-3.38,1,5.22,5.22,0,1,1,0-10.43,6.38,6.38,0,0,1,4.24,1.68l1.41-1.83a8.83,8.83,0,0,0-5.65-2.06c-4.45,0-7.87,3.22-7.87,7.42a7.49,7.49,0,0,0,7.72,7.45,10,10,0,0,0,5.71-1.91v-5.42h-2.16Z"/><path class="cls-3" d="M316.25,196.06V192h7.18V189.8h-7.18v-4h8v-2.22h-10.5v14.69h10.75v-2.22Z"/><path class="cls-3" d="M346.68,183.59v10.56l-7.88-10.56h-2.43v14.69h2.48V187.74l7.83,10.54h2.43V183.59Z"/><path class="cls-3" d="M374.15,194.34a6.1,6.1,0,0,1-4.1,1.74,5.18,5.18,0,1,1,0-10.35,5.73,5.73,0,0,1,4.1,1.87l1.44-1.81a8.12,8.12,0,0,0-5.58-2.27,7.44,7.44,0,1,0-.08,14.87,8.38,8.38,0,0,0,5.69-2.42Z"/><path class="cls-3" d="M394.6,183.59l-4.12,7.16-4.19-7.16h-2.5l5.48,9.89v4.8h2.45v-4.89l5.4-9.8Z"/></g></g></svg>